<?xml version="1.0" standalone="no"?>
<!DOCTYPE svg PUBLIC "-//W3C//DTD SVG 20010904//EN"
 "http://www.w3.org/TR/2001/REC-SVG-20010904/DTD/svg10.dtd">
<svg version="1.0" xmlns="http://www.w3.org/2000/svg"
 width="900.000000pt" height="306.000000pt" viewBox="0 0 900.000000 306.000000"
 preserveAspectRatio="xMidYMid meet">
<metadata>
Created by potrace 1.16, written by Peter Selinger 2001-2019
</metadata>
<g transform="translate(0.000000,306.000000) scale(0.100000,-0.100000)"
fill="#000000" stroke="none">
<path d="M2020 2959 c-464 -52 -865 -260 -1055 -548 -177 -269 -176 -593 3
-792 160 -179 432 -216 605 -84 117 90 206 325 151 403 -23 33 -72 29 -120 -9
-91 -74 -194 -80 -262 -16 -48 45 -66 95 -66 187 0 364 400 650 909 650 416 0
698 -180 756 -484 13 -69 11 -115 -7 -204 -23 -114 -66 -195 -149 -278 -77
-78 -188 -141 -300 -169 -60 -16 -227 -36 -234 -29 -10 10 105 398 165 552 67
175 120 269 186 334 48 48 58 63 58 92 0 26 -7 40 -27 56 -24 19 -36 21 -86
16 -203 -21 -435 -209 -602 -490 -80 -134 -131 -257 -229 -549 -203 -611 -377
-855 -636 -898 -70 -12 -147 -7 -181 11 -21 12 -21 12 9 43 54 57 67 94 67
187 0 65 -5 96 -21 130 -78 170 -305 214 -449 88 -90 -80 -131 -180 -123 -302
7 -98 42 -168 121 -243 118 -109 279 -163 493 -163 498 0 910 292 1134 804
l33 76 119 0 c294 0 538 53 753 163 171 88 318 254 366 415 7 23 14 41 16 39
6 -7 -29 -247 -58 -389 -16 -81 -57 -245 -91 -365 -72 -255 -80 -335 -40 -411
52 -99 183 -120 281 -45 57 44 81 112 91 267 10 145 29 239 66 323 43 99 109
162 154 148 34 -11 34 -48 0 -142 -86 -241 -93 -266 -94 -353 -1 -107 19 -164
79 -219 123 -113 332 -87 492 62 60 57 66 60 75 42 6 -11 34 -43 63 -71 152
-150 420 -131 571 41 79 90 145 256 160 402 6 58 9 64 33 70 14 3 50 17 80 30
30 13 56 21 59 18 12 -11 -20 -136 -59 -235 -34 -86 -43 -120 -47 -191 -5
-102 6 -144 51 -186 108 -102 280 -48 321 100 8 28 17 99 20 157 7 131 34 241
86 346 61 125 150 191 180 134 14 -25 2 -76 -49 -210 -87 -232 -91 -371 -16
-480 94 -135 345 -127 505 17 l47 43 29 -45 c69 -110 213 -143 368 -85 30 12
71 33 92 49 l39 28 0 -166 c0 -189 17 -267 77 -357 117 -174 368 -193 521 -39
103 103 156 260 164 489 6 162 -3 242 -43 360 -13 38 -24 73 -24 77 0 4 13 10
29 14 16 3 55 22 87 41 31 19 59 32 61 30 2 -2 -6 -37 -19 -77 -18 -58 -23
-98 -23 -180 0 -98 2 -110 30 -164 39 -77 89 -112 177 -127 136 -24 267 44
363 187 21 32 25 35 21 15 -3 -14 -12 -64 -21 -111 -30 -168 -80 -284 -138
-320 -57 -34 -88 -25 -174 52 -54 49 -111 65 -179 50 -91 -21 -144 -93 -144
-196 0 -138 115 -229 305 -242 271 -18 479 140 581 439 31 93 50 197 69 388
18 180 43 326 85 504 49 206 38 314 -39 378 -62 53 -176 45 -237 -16 -40 -40
-64 -117 -64 -205 -1 -287 -85 -575 -187 -643 -36 -23 -58 -23 -83 2 -16 16
-20 33 -20 93 0 84 23 173 78 307 54 130 72 194 72 259 0 105 -38 179 -107
207 -63 27 -149 10 -200 -38 -31 -29 -63 -118 -63 -174 0 -41 -4 -49 -66 -110
-80 -80 -183 -134 -271 -140 -57 -5 -59 -4 -106 40 l-49 46 46 152 c89 299
118 459 120 653 1 126 -1 144 -21 181 -25 47 -73 91 -109 100 -49 13 -148 -1
-181 -24 -60 -43 -76 -96 -84 -287 -14 -318 -41 -503 -133 -915 l-64 -285 -42
-37 c-68 -61 -138 -61 -177 -2 -13 21 -17 45 -16 104 2 90 18 163 75 348 34
112 40 143 36 200 -6 119 -68 191 -163 192 -135 0 -205 -86 -205 -255 0 -103
-17 -223 -50 -363 -17 -68 -30 -132 -30 -143 0 -26 -68 -99 -107 -116 -51 -21
-81 -16 -115 17 -28 29 -30 34 -26 93 3 42 17 91 42 152 103 245 119 296 120
380 2 145 -56 231 -169 255 -144 30 -280 -39 -402 -204 l-43 -58 0 34 c0 140
-99 231 -217 199 -80 -22 -123 -97 -123 -216 l0 -76 -42 -19 c-24 -10 -59 -21
-78 -25 l-36 -6 -12 59 c-46 221 -218 350 -417 313 -94 -17 -162 -56 -245
-140 -87 -87 -135 -170 -176 -306 -24 -79 -27 -109 -29 -242 -2 -102 -6 -158
-14 -167 -19 -23 -94 -56 -125 -56 -17 0 -39 11 -57 29 -23 24 -29 38 -29 73
0 59 12 99 82 262 76 179 97 269 81 361 -22 128 -95 189 -228 189 -54 0 -80
-5 -113 -22 -52 -28 -123 -91 -165 -147 -24 -32 -29 -35 -23 -15 64 255 110
543 104 665 -4 104 -22 145 -79 183 -29 20 -44 23 -104 20 -125 -6 -175 -67
-183 -222 l-5 -90 -18 73 c-84 330 -468 583 -974 641 -104 11 -317 11 -425 -1z
m2742 -1401 c-2 -41 1 -92 8 -116 16 -60 81 -124 143 -141 26 -8 47 -17 47
-21 0 -29 -42 -135 -69 -173 -73 -107 -192 -105 -248 4 -71 138 -39 365 67
472 26 26 49 47 52 47 3 0 3 -33 0 -72z m2592 -419 c31 -29 56 -323 37 -452
-19 -137 -70 -199 -117 -144 -56 66 -58 313 -4 565 12 53 12 53 43 47 18 -4
36 -11 41 -16z"/>
<path d="M6660 2337 c-49 -16 -126 -95 -139 -143 -42 -152 52 -267 206 -251
68 7 131 43 169 98 26 38 29 50 29 123 0 69 -4 86 -23 114 -13 18 -38 40 -55
48 -39 21 -141 27 -187 11z"/>
</g>
</svg>
